<svg width="48" height="48" viewBox="0 0 48 48" fill="none" xmlns="http://www.w3.org/2000/svg">
<path fill-rule="evenodd" clip-rule="evenodd" d="M19.9457 1.0313C22.4736 -0.343768 25.5262 -0.343768 28.0542 1.0313L42.7096 9.00307C45.4402 10.4884 47.14 13.348 47.14 16.4565V31.5435C47.14 34.652 45.4402 37.5116 42.7096 38.9969L28.0542 46.9687C25.5262 48.3438 22.4736 48.3438 19.9457 46.9687L5.2903 38.9969C2.55967 37.5116 0.859863 34.652 0.859863 31.5435L0.859863 16.4565C0.859863 13.348 2.55967 10.4884 5.2903 9.00307L19.9457 1.0313Z" fill="#627EEA"/>
<g clip-path="url(#clip0_6_72)">
<path d="M24.0003 43.2002C34.6042 43.2002 43.2003 34.6041 43.2003 24.0002C43.2003 13.3963 34.6042 4.80019 24.0003 4.80019C13.3964 4.80019 4.80029 13.3963 4.80029 24.0002C4.80029 34.6041 13.3964 43.2002 24.0003 43.2002Z" fill="#627EEA"/>
<path d="M24.0007 9.60037V20.2444L32.9971 24.2644L24.0007 9.60037Z" fill="white" fill-opacity="0.602"/>
<path d="M24.5982 9.60037L15.6006 24.2644L24.5982 20.2444V9.60037Z" fill="white"/>
<path d="M24.0007 31.623V38.8554L33.0031 26.4006L24.0007 31.623Z" fill="white" fill-opacity="0.602"/>
<path d="M24.5982 38.8554V31.6218L15.6006 26.4006L24.5982 38.8554Z" fill="white"/>
<path d="M24.0007 29.6418L32.9971 24.4182L24.0007 20.4006V29.6418Z" fill="white" fill-opacity="0.2"/>
<path d="M15.6006 24.4182L24.5982 29.6418V20.4006L15.6006 24.4182Z" fill="white" fill-opacity="0.602"/>
</g>
<defs>
<clipPath id="clip0_6_72">
<rect width="38.4" height="38.4" fill="white" transform="translate(4.80029 4.80019)"/>
</clipPath>
</defs>
</svg>
