<svg width="48" height="48" viewBox="0 0 48 48" fill="none" xmlns="http://www.w3.org/2000/svg">
<path fill-rule="evenodd" clip-rule="evenodd" d="M19.9457 1.0313C22.4736 -0.343768 25.5262 -0.343768 28.0542 1.0313L42.7096 9.00307C45.4402 10.4884 47.14 13.348 47.14 16.4565V31.5435C47.14 34.652 45.4402 37.5116 42.7096 38.9969L28.0542 46.9687C25.5262 48.3438 22.4736 48.3438 19.9457 46.9687L5.2903 38.9969C2.55967 37.5116 0.859863 34.652 0.859863 31.5435L0.859863 16.4565C0.859863 13.348 2.55967 10.4884 5.2903 9.00307L19.9457 1.0313Z" fill="#2A5ADA"/>
<path fill-rule="evenodd" clip-rule="evenodd" d="M19.9457 1.0313C22.4736 -0.343768 25.5262 -0.343768 28.0542 1.0313L42.7096 9.00307C45.4402 10.4884 47.14 13.348 47.14 16.4565V31.5435C47.14 34.652 45.4402 37.5116 42.7096 38.9969L28.0542 46.9687C25.5262 48.3438 22.4736 48.3438 19.9457 46.9687L5.2903 38.9969C2.55967 37.5116 0.859863 34.652 0.859863 31.5435L0.859863 16.4565C0.859863 13.348 2.55967 10.4884 5.2903 9.00307L19.9457 1.0313Z" fill="#26A17B"/>
<g clip-path="url(#clip0_6_64)">
<path d="M24 43.2C34.6039 43.2 43.2 34.6039 43.2 24C43.2 13.3961 34.6039 4.79999 24 4.79999C13.3962 4.79999 4.80005 13.3961 4.80005 24C4.80005 34.6039 13.3962 43.2 24 43.2Z" fill="#26A17B"/>
<path fill-rule="evenodd" clip-rule="evenodd" d="M25.9464 25.8768V25.8744C25.8144 25.884 25.134 25.9248 23.616 25.9248C22.404 25.9248 21.5508 25.8888 21.2508 25.8744V25.878C16.5852 25.6728 13.1028 24.8604 13.1028 23.8884C13.1028 22.9176 16.5852 22.1052 21.2508 21.8964V25.0692C21.5556 25.0908 22.4292 25.1424 23.6364 25.1424C25.0848 25.1424 25.8108 25.0824 25.9464 25.0704V21.8988C30.6024 22.1064 34.0764 22.9188 34.0764 23.8884C34.0764 24.8604 30.6024 25.6704 25.9464 25.8768ZM25.9464 21.5688V18.7296H32.4432V14.4H14.754V18.7296H21.2508V21.5676C15.9708 21.81 12 22.8564 12 24.1092C12 25.362 15.9708 26.4072 21.2508 26.6508V35.7492H25.9464V26.6484C31.218 26.406 35.1792 25.3608 35.1792 24.1092C35.1792 22.8576 31.218 21.8124 25.9464 21.5688Z" fill="white"/>
</g>
<defs>
<clipPath id="clip0_6_64">
<rect width="38.4" height="38.4" fill="white" transform="translate(4.80005 4.79999)"/>
</clipPath>
</defs>
</svg>
