<svg width="40" height="24" viewBox="0 0 40 24" fill="none" xmlns="http://www.w3.org/2000/svg">
<rect x="0.5" y="0.5" width="39" height="23" rx="5.5" fill="white" stroke="#D5D8FF"/>
<path fill-rule="evenodd" clip-rule="evenodd" d="M11.5223 8.01604C11.2002 8.41326 10.6847 8.72656 10.1693 8.6818C10.1049 8.14471 10.3572 7.57406 10.6525 7.22159C10.9747 6.81318 11.5384 6.52226 11.9948 6.49988C12.0485 7.05935 11.8391 7.60763 11.5223 8.01604ZM11.9893 8.78794C11.5353 8.76071 11.1209 8.93024 10.7863 9.06718C10.5709 9.1553 10.3885 9.22992 10.2498 9.22992C10.0941 9.22992 9.90417 9.15131 9.69095 9.06304C9.41157 8.94739 9.09216 8.81516 8.7572 8.82151C7.98943 8.8327 7.27536 9.28587 6.88342 10.0076C6.07807 11.451 6.67403 13.5882 7.45253 14.7631C7.83373 15.3449 8.29009 15.9827 8.89142 15.9603C9.15597 15.9499 9.34627 15.8658 9.54321 15.7787C9.76995 15.6784 10.0055 15.5743 10.3733 15.5743C10.7283 15.5743 10.9535 15.6757 11.1697 15.7731C11.3753 15.8657 11.5728 15.9546 11.8658 15.9491C12.4886 15.9379 12.8806 15.3673 13.2618 14.7854C13.6732 14.161 13.8539 13.5515 13.8814 13.459L13.8846 13.4483C13.8839 13.4476 13.8789 13.4452 13.8699 13.4409L13.8699 13.4409C13.7324 13.3753 12.6813 12.8739 12.6712 11.5293C12.6611 10.4008 13.5049 9.82896 13.6377 9.73895C13.6458 9.73347 13.6513 9.72977 13.6537 9.72785C13.1168 8.89984 12.2793 8.81032 11.9893 8.78794ZM16.3005 15.8878V7.16565H19.4414C21.0628 7.16565 22.1957 8.32934 22.1957 10.0301C22.1957 11.7309 21.0414 12.9058 19.3984 12.9058H17.5998V15.8878H16.3005ZM17.5999 8.30713H19.0978C20.2253 8.30713 20.8696 8.93373 20.8696 10.0359C20.8696 11.138 20.2253 11.7702 19.0924 11.7702H17.5999V8.30713ZM26.4858 14.8414C26.1421 15.5239 25.3851 15.9547 24.569 15.9547C23.361 15.9547 22.5181 15.205 22.5181 14.0749C22.5181 12.956 23.3342 12.3126 24.8428 12.2175L26.4643 12.1168V11.6356C26.4643 10.9251 26.0187 10.5391 25.224 10.5391C24.569 10.5391 24.0912 10.8915 23.9945 11.4286H22.8241C22.8617 10.2985 23.8818 9.47607 25.2616 9.47607C26.7488 9.47607 27.7153 10.2873 27.7153 11.5461V15.8876H26.5126V14.8414H26.4858ZM24.9176 14.9197C24.225 14.9197 23.7848 14.5728 23.7848 14.0413C23.7848 13.493 24.2089 13.1741 25.0197 13.1238L26.4639 13.0287V13.521C26.4639 14.3378 25.7982 14.9197 24.9176 14.9197ZM31.7045 16.2288C31.1837 17.7561 30.5877 18.2597 29.3206 18.2597C29.224 18.2597 28.9018 18.2485 28.8267 18.2261V17.1799C28.9072 17.1911 29.1059 17.2023 29.2079 17.2023C29.7824 17.2023 30.1045 16.9505 30.3031 16.2959L30.4213 15.9099L28.22 9.55994H29.5783L31.1085 14.7126H31.1353L32.6655 9.55994H33.9863L31.7045 16.2288Z" fill="black"/>
</svg>
