<svg width="40" height="24" viewBox="0 0 40 24" fill="none" xmlns="http://www.w3.org/2000/svg">
<rect x="0.5" y="0.5" width="39" height="23" rx="5.5" fill="white" stroke="#D5D8FF"/>
<path d="M23.0283 6.52881H16.9717V17.4715H23.0283V6.52881Z" fill="#FF7400"/>
<path d="M17.3563 12.0002C17.3563 9.77683 18.3946 7.80483 19.9904 6.52883C18.8176 5.60083 17.337 5.04016 15.7219 5.04016C11.8957 5.04016 8.80005 8.15283 8.80005 12.0002C8.80005 15.8475 11.8957 18.9602 15.7219 18.9602C17.337 18.9602 18.8176 18.3995 19.9904 17.4715C18.3946 16.2148 17.3563 14.2235 17.3563 12.0002Z" fill="#EC0026"/>
<path d="M31.1997 12.0002C31.1997 15.8475 28.104 18.9602 24.2778 18.9602C22.6627 18.9602 21.1822 18.3995 20.0093 17.4715C21.6244 16.1955 22.6434 14.2235 22.6434 12.0002C22.6434 9.77683 21.6052 7.80483 20.0093 6.52883C21.1822 5.60083 22.6627 5.04016 24.2778 5.04016C28.104 5.04016 31.1997 8.17216 31.1997 12.0002Z" fill="#F7AB26"/>
</svg>
